# File created by Blade
# Date/Time:  Tue Sep 30 19:12:23 2014
#---------------------------------------------------------
:version 1.10
:name HOM
:units
  mass 1.0
  length 1.000000
  angle deg
:documentation
     Acclaim Skeleton File
:root
   axis xyz
   order TX TY TZ RX RY RZ
   position 0.000000 0.000000 0.000000
   orientation 0 0 0
:bonedata
   begin
      id 1
      name Spine_dum
      direction 0.000000 1.000000 0.000000
      length 7.508948
      axis 0.0 0.0 0.0 xyz
   end
   begin
      id 2
      name LeftUpLeg_dum
      direction 1.000000 0.000000 0.000000
      length 3.000560
      axis 0.0 0.0 0.0 xyz
   end
   begin
      id 3
      name RightUpLeg_dum
      direction -1.000000 0.000000 0.000000
      length 3.000560
      axis 0.0 0.0 0.0 xyz
   end
   begin
      id 4
      name Spine
      direction 0.000000 1.000000 0.000000
      length 0.000000
      axis 0.0 0.0 0.0 xyz
      dof rx ry rz
   end
   begin
      id 5
      name Spine_dum1
      direction 0.000000 1.000000 0.000000
      length 13.861154
      axis 0.0 0.0 0.0 xyz
   end
   begin
      id 6
      name Spine_dum2
      direction 0.000000 1.000000 0.000000
      length 8.204781
      axis 0.0 0.0 0.0 xyz
   end
   begin
      id 7
      name Spine_dum3
      direction 0.000000 1.000000 0.000000
      length 8.204781
      axis 0.0 0.0 0.0 xyz
   end
   begin
      id 8
      name Head
      direction 0.000000 1.000000 0.000000
      length 4.527550
      axis 0.0 0.0 0.0 xyz
      dof rx ry rz
   end
   begin
      id 9
      name LeftShoulder
      direction 1.000000 0.000000 0.000000
      length 6.635956
      axis 0.0 0.0 -90.0 xyz
      dof rx ry rz
   end
   begin
      id 10
      name LeftArm
      direction 1.000000 0.000000 0.000000
      length 10.274218
      axis 0.0 0.0 -90.0 xyz
      dof rx ry rz
   end
   begin
      id 11
      name LeftForeArm
      direction 1.000000 0.000000 0.000000
      length 8.522147
      axis 0.0 0.0 -90.0 xyz
      dof ry rz rx
   end
   begin
      id 12
      name LeftHand
      direction 0.000000 0.000000 0.000000
      length 0.000000
      axis 0.0 0.0 -90.0 xyz
      dof rx ry rz
   end
   begin
      id 13
      name LeftHand_dum1
      direction 0.000000 0.000000 0.000000
      length 0.000000
      axis 0.0 0.0 -90.0 xyz
   end
   begin
      id 14
      name LeftHand_dum2
      direction 1.000000 0.000000 0.000000
      length 3.937000
      axis 0.0 0.0 -90.0 xyz
   end
   begin
      id 15
      name LeftHandThumb1
      direction 0.000000 0.000000 1.000000
      length 3.937000
      axis 0.0 0.0 -90.0 xyz
      dof rx rz ry
   end
   begin
      id 16
      name RightShoulder
      direction -1.000000 0.000000 0.000000
      length 6.635956
      axis 0.0 0.0 90.0 xyz
      dof rx ry rz
   end
   begin
      id 17
      name RightArm
      direction -1.000000 0.000000 0.000000
      length 10.274218
      axis 0.0 0.0 90.0 xyz
      dof rx ry rz
   end
   begin
      id 18
      name RightForeArm
      direction -1.000000 0.000000 0.000000
      length 8.522147
      axis 0.0 0.0 90.0 xyz
      dof ry rz rx
   end
   begin
      id 19
      name RightHand
      direction 0.000000 0.000000 0.000000
      length 0.000000
      axis 0.0 0.0 90.0 xyz
      dof rx ry rz
   end
   begin
      id 20
      name RightHand_dum1
      direction 0.000000 0.000000 0.000000
      length 0.000000
      axis 0.0 0.0 90.0 xyz
   end
   begin
      id 21
      name RightHand_dum2
      direction -1.000000 0.000000 0.000000
      length 3.937000
      axis 0.0 0.0 90.0 xyz
   end
   begin
      id 22
      name RightHandThumb1
      direction 0.000000 0.000000 1.000000
      length 3.937000
      axis 0.0 0.0 90.0 xyz
      dof rx rz ry
   end
   begin
      id 23
      name LeftUpLeg
      direction 0.000000 -1.000000 0.000000
      length 16.490845
      axis 0.0 0.0 0.0 xyz
      dof rx ry rz
   end
   begin
      id 24
      name LeftLeg
      direction 0.000000 -1.000000 0.000000
      length 14.556576
      axis 0.0 0.0 0.0 xyz
      dof rx ry rz
   end
   begin
      id 25
      name LeftFoot
      direction 0.000000 -0.258819 0.965926
      length 4.831116
      axis 15.0 0.0 0.0 xyz
      dof rx ry rz
   end
   begin
      id 26
      name LeftToeBase
      direction 0.000000 0.000000 1.000000
      length 2.952750
      axis 0.0 0.0 0.0 xyz
      dof rx ry rz
   end
   begin
      id 27
      name RightUpLeg
      direction 0.000000 -1.000000 0.000000
      length 16.490845
      axis 0.0 0.0 0.0 xyz
      dof rx ry rz
   end
   begin
      id 28
      name RightLeg
      direction 0.000000 -1.000000 0.000000
      length 14.556576
      axis 0.0 0.0 0.0 xyz
      dof rx ry rz
   end
   begin
      id 29
      name RightFoot
      direction 0.000000 -0.258819 0.965926
      length 4.831116
      axis 15.0 0.0 0.0 xyz
      dof rx ry rz
   end
   begin
      id 30
      name RightToeBase
      direction 0.000000 0.000000 1.000000
      length 2.952750
      axis 0.0 0.0 0.0 xyz
      dof rx ry rz
   end
:hierarchy
   begin
      root Spine_dum LeftUpLeg_dum RightUpLeg_dum
      Spine_dum Spine
      LeftUpLeg_dum LeftUpLeg
      RightUpLeg_dum RightUpLeg
      Spine Spine_dum1 Spine_dum2 Spine_dum3
      Spine_dum1 Head
      Spine_dum2 LeftShoulder
      Spine_dum3 RightShoulder
      LeftShoulder LeftArm
      LeftArm LeftForeArm
      LeftForeArm LeftHand
      LeftHand LeftHand_dum1 LeftHand_dum2
      LeftHand_dum1 LeftHandThumb1
      RightShoulder RightArm
      RightArm RightForeArm
      RightForeArm RightHand
      RightHand RightHand_dum1 RightHand_dum2
      RightHand_dum1 RightHandThumb1
      LeftUpLeg LeftLeg
      LeftLeg LeftFoot
      LeftFoot LeftToeBase
      RightUpLeg RightLeg
      RightLeg RightFoot
      RightFoot RightToeBase
   end

# File created by Blade
# Date/Time:  Thu Sep 25 17:43:48 2014
# Frame Rate: 120.000 fps
#------------------------------------------------------
:FULLY-SPECIFIED
:DEGREES
1
root 51.556559 29.709125 -1.728519 -171.206748 -83.453388 -164.662053
Spine -2.549237 -3.713099 -2.611471
Head -35.043887 8.737734 11.687874
LeftShoulder -1.723117 18.600284 16.134287
LeftArm 35.604100 23.244534 -61.933568
LeftForeArm 2.991107 -0.000000 65.479277
LeftHand -27.649751 0.000000 4.283446
LeftHandThumb1 -26.253704 0.000000 33.147579
RightShoulder -14.902470 4.672316 -24.585861
RightArm -27.821596 -31.882802 108.383942
RightForeArm -18.231304 -0.000000 35.486451
RightHand 1.490185 -0.000000 -3.225527
RightHandThumb1 -24.326973 -0.000000 -32.862282
LeftUpLeg -26.096582 -6.664807 -4.341094
LeftLeg 53.118075 -0.000000 -0.000000
LeftFoot 17.695593 9.622389 136.998215
LeftToeBase 93.607911 -0.000000 -0.000000
RightUpLeg -68.072925 -1.220558 -5.027842
RightLeg 111.382117 -0.000000 -0.000000
RightFoot -4.368205 -21.570017 -5.433204
RightToeBase -7.586594 -0.000000 0.000000
2
root 50.959052 29.675594 -1.805401 -177.156337 -84.487628 -158.883137
Spine -2.684688 -4.914922 -1.615395
Head -34.739466 8.726653 11.148385
LeftShoulder -0.871475 17.014189 16.871891
LeftArm 36.929431 22.281035 -62.210904
LeftForeArm 3.422879 -0.000000 68.371996
LeftHand -27.973088 -0.000000 -0.868928
LeftHandThumb1 -26.253704 0.000000 33.147579
RightShoulder -15.120110 4.267854 -24.970818
RightArm -30.241032 -33.818568 110.452431
RightForeArm -19.449174 -0.000000 36.377813
RightHand -3.997202 0.000000 -9.438322
RightHandThumb1 -24.326973 -0.000000 -32.862282
LeftUpLeg -24.097426 -6.919932 -3.836778
LeftLeg 51.672976 -0.000000 -0.000000
LeftFoot 18.020428 9.468392 137.739519
LeftToeBase 93.612848 -0.000000 -0.000000
RightUpLeg -70.339082 -1.492812 -4.383750
RightLeg 110.556215 -0.000000 -0.000000
RightFoot -4.741148 -21.348448 -5.381627
RightToeBase -8.193081 -0.000000 0.000000
3
root 50.337804 29.667053 -1.886564 -186.016238 -85.410505 -150.126997
Spine -2.951787 -6.209598 -0.558363
Head -34.327970 8.867424 10.638872
LeftShoulder -0.154323 15.423251 17.701881
LeftArm 38.153933 21.291617 -62.560513
LeftForeArm 4.049671 -0.000000 71.352709
LeftHand -27.254616 0.000000 -3.128073
LeftHandThumb1 -26.253704 0.000000 33.147579
RightShoulder -15.313402 3.678177 -25.351641
RightArm -31.923522 -34.309930 111.153299
RightForeArm -19.062419 -0.000000 36.304734
RightHand -4.109613 -0.000000 -9.427462
RightHandThumb1 -24.326973 -0.000000 -32.862282
LeftUpLeg -22.031646 -7.124300 -3.223291
LeftLeg 49.918661 -0.000000 -0.000000
LeftFoot 18.046597 9.298412 138.511431
LeftToeBase 93.836321 -0.000000 -0.000000
RightUpLeg -72.430103 -1.743441 -3.724982
RightLeg 109.352679 -0.000000 -0.000000
RightFoot -5.413922 -20.749865 -5.056686
RightToeBase -8.452055 -0.000000 0.000000
4
root 49.703764 29.691667 -1.963582 -198.833680 -86.248742 -137.285829
Spine -3.342935 -7.634066 0.529145
Head -34.086619 9.053106 10.158287
LeftShoulder 0.552821 14.181524 18.702242
LeftArm 39.599937 20.125829 -62.853589
LeftForeArm 4.468951 -0.000000 74.528396
LeftHand -27.106360 -0.000000 -4.249454
LeftHandThumb1 -26.253704 0.000000 33.147579
RightShoulder -15.493544 3.141507 -25.700309
RightArm -33.547581 -34.377629 111.455920
RightForeArm -18.568362 -0.000000 36.477442
RightHand -4.444819 -0.000000 -9.218744
RightHandThumb1 -24.326973 -0.000000 -32.862282
LeftUpLeg -19.984173 -8.025790 -2.412287
LeftLeg 47.633492 -0.000000 -0.000000
LeftFoot 20.856221 8.312819 144.626460
LeftToeBase 91.843102 -0.000000 -0.000000
RightUpLeg -74.425948 -2.078687 -3.098332
RightLeg 107.759645 -0.000000 -0.000000
RightFoot -6.053981 -20.076976 -4.679208
RightToeBase -8.451266 -0.000000 0.000000
5
root 49.056431 29.749250 -2.039000 -215.228446 -86.815059 -120.791808
Spine -3.822504 -9.040309 1.494264
Head -33.818770 9.317710 9.837807
LeftShoulder 1.279128 12.980639 19.892148
LeftArm 40.848888 18.855570 -63.193180
LeftForeArm 4.789965 -0.000000 77.901167
LeftHand -26.897895 -0.000000 -4.756548
LeftHandThumb1 -26.253704 0.000000 33.147579
RightShoulder -15.652474 2.655620 -25.921429
RightArm -35.074773 -34.088585 111.339044
RightForeArm -18.223346 -0.000000 36.807044
RightHand -4.510134 0.000000 -9.144645
RightHandThumb1 -24.326973 -0.000000 -32.862282
LeftUpLeg -17.972287 -8.482944 -1.775357
LeftLeg 45.347814 -0.000000 -0.000000
LeftFoot 19.853121 8.051394 144.877251
LeftToeBase 92.367740 -0.000000 -0.000000
RightUpLeg -76.265890 -2.357260 -2.623817
RightLeg 105.790721 -0.000000 -0.000000
RightFoot -6.560536 -19.288066 -4.308777
RightToeBase -8.474075 -0.000000 0.000000
6
root 48.349296 29.827222 -2.105798 -234.413410 -87.050713 -101.515828
Spine -4.448405 -10.489165 2.485875
Head -33.461908 9.698602 9.382006
LeftShoulder 1.473135 13.245362 20.858011
LeftArm 43.510057 17.235444 -62.937217
LeftForeArm 5.290557 0.000000 81.119514
LeftHand -26.882518 0.000000 -6.368885
LeftHandThumb1 -26.253704 0.000000 33.147579
RightShoulder -15.853778 2.028188 -26.125765
RightArm -36.396237 -33.749531 110.832473
RightForeArm -18.091976 -0.000000 37.190757
RightHand -3.839283 -0.000000 -8.551168
RightHandThumb1 -24.326973 -0.000000 -32.862282
LeftUpLeg -15.715122 -8.877101 -1.220570
LeftLeg 42.561100 -0.000000 -0.000000
LeftFoot 18.404843 7.450380 144.978600
LeftToeBase 93.906028 -0.000000 -0.000000
RightUpLeg -77.699299 -2.626660 -2.228074
RightLeg 104.090559 -0.000000 -0.000000
RightFoot -7.679534 -18.273136 -4.428004
RightToeBase -7.339313 -0.000000 0.000000
7
root 47.643312 29.934493 -2.154088 -249.725853 -86.913743 -86.022407
Spine -5.095030 -11.841361 3.519636
Head -33.170047 10.013858 8.941921
LeftShoulder 1.835936 12.773013 22.132391
LeftArm 45.002130 15.705272 -63.332177
LeftForeArm 5.567677 -0.000000 84.438223
LeftHand -26.827799 -0.000000 -7.482344
LeftHandThumb1 -26.253704 0.000000 33.147579
RightShoulder -15.986973 1.489609 -26.253662
RightArm -37.396123 -33.223778 109.851710
RightForeArm -18.154296 -0.000000 37.605980
RightHand -4.320981 -0.000000 -9.210191
RightHandThumb1 -24.326973 -0.000000 -32.862282
LeftUpLeg -13.489135 -9.543040 -0.700697
LeftLeg 39.512848 -0.000000 -0.000000
LeftFoot 16.528449 6.664166 144.609800
LeftToeBase 95.721463 -0.000000 -0.000000
RightUpLeg -79.138309 -2.703396 -1.940843
RightLeg 101.416904 -0.000000 -0.000000
RightFoot -8.378119 -17.714704 -2.466683
RightToeBase -5.880172 -0.000000 0.000000
8
root 46.908991 30.064830 -2.205839 -258.273337 -86.502020 -77.389226
Spine -5.586872 -13.016135 4.590044
Head -33.060753 10.520101 8.509680
LeftShoulder 2.125027 12.340170 23.692999
LeftArm 46.029626 14.431973 -64.230691
LeftForeArm 5.449284 0.000000 87.830767
LeftHand -27.037521 -0.000000 -7.225210
LeftHandThumb1 -26.253704 0.000000 33.147579
RightShoulder -16.070450 0.951377 -26.247845
RightArm -38.086604 -32.629212 108.452568
RightForeArm -18.401580 -0.000000 38.058750
RightHand -4.447841 -0.000000 -9.461643
RightHandThumb1 -24.326973 -0.000000 -32.862282
LeftUpLeg -11.079424 -9.804127 -0.131150
LeftLeg 36.396195 -0.000000 -0.000000
LeftFoot 13.543603 5.687726 145.414259
LeftToeBase 97.345660 -0.000000 -0.000000
RightUpLeg -80.204071 -2.493714 -1.568726
RightLeg 98.354340 -0.000000 -0.000000
RightFoot -8.087369 -17.434698 -1.810850
RightToeBase -5.063837 -0.000000 0.000000
9
root 46.160094 30.215658 -2.255738 -260.439069 -86.086298 -74.998580
Spine -6.251840 -13.925909 5.625895
Head -32.920014 11.059675 8.097083
LeftShoulder 2.277714 11.972976 25.231685
LeftArm 46.919759 13.222907 -64.928427
LeftForeArm 4.913736 -0.000000 90.946320
LeftHand -26.457633 0.000000 -7.738234
LeftHandThumb1 -26.253704 0.000000 33.147579
RightShoulder -16.115840 0.590976 -26.242645
RightArm -38.735309 -31.610345 106.768595
RightForeArm -18.598743 -0.000000 38.457171
RightHand -4.037433 -0.000000 -9.695338
RightHandThumb1 -24.326973 -0.000000 -32.862282
LeftUpLeg -8.810373 -9.686957 0.413192
LeftLeg 33.160593 -0.000000 -0.000000
LeftFoot 7.139160 3.488352 149.378003
LeftToeBase 95.718319 -0.000000 -0.000000
RightUpLeg -81.189219 -2.007045 -1.290450
RightLeg 95.024466 -0.000000 -0.000000
RightFoot -7.430556 -16.979858 -1.087276
RightToeBase -5.431052 -0.000000 0.000000
10
root 45.383600 30.379416 -2.294134 -259.312552 -85.673642 -76.003372
Spine -6.806637 -14.761835 6.700772
Head -32.728069 11.769863 7.541178
LeftShoulder 2.340179 11.494852 26.705109
LeftArm 47.312569 12.196018 -65.838289
LeftForeArm 4.272963 -0.000000 93.994923
LeftHand -26.009985 -0.000000 -8.346669
LeftHandThumb1 -26.253704 0.000000 33.147579
RightShoulder -15.986609 0.257918 -26.311581
RightArm -39.059847 -30.321015 104.838601
RightForeArm -18.452380 0.000000 38.811621
RightHand -3.809561 0.000000 -10.196080
RightHandThumb1 -24.326973 -0.000000 -32.862282
LeftUpLeg -6.412618 -9.435552 0.888566
LeftLeg 30.233370 -0.000000 -0.000000
LeftFoot -2.053798 -0.760100 144.479238
LeftToeBase 107.148725 -0.000000 -0.000000
RightUpLeg -81.821441 -1.385409 -1.000182
RightLeg 91.430379 -0.000000 -0.000000
RightFoot -6.373045 -16.453337 -1.059117
RightToeBase -5.893965 -0.000000 0.000000
11
root 44.585126 30.553807 -2.332354 -256.977502 -85.246606 -78.237700
Spine -7.348309 -15.514634 7.853137
Head -32.503055 12.490255 6.842043
LeftShoulder 2.343281 11.011244 27.993213
LeftArm 47.421114 11.372515 -66.666449
LeftForeArm 3.839191 -0.000000 96.890706
LeftHand -25.439035 -0.000000 -8.803508
LeftHandThumb1 -26.253704 0.000000 33.147579
RightShoulder -15.841245 0.258511 -26.533889
RightArm -39.643271 -29.089041 103.176955
RightForeArm -18.507576 0.000000 39.137069
RightHand -4.237490 0.000000 -11.596505
RightHandThumb1 -24.326973 -0.000000 -32.862282
LeftUpLeg -4.064194 -8.635461 1.455213
LeftLeg 26.950159 -0.000000 -0.000000
LeftFoot -9.073891 -2.132810 143.336530
LeftToeBase 110.670492 -0.000000 -0.000000
RightUpLeg -82.162955 -0.675768 -0.662351
RightLeg 87.677946 -0.000000 -0.000000
RightFoot -5.168086 -15.684452 -1.133659
RightToeBase -6.008841 -0.000000 0.000000
